<svg xmlns="http://www.w3.org/2000/svg" version="1.1" xmlns:xlink="http://www.w3.org/1999/xlink" width="1000" height="1000"><g clip-path="url(#SvgjsClipPath1040)"><rect width="1000" height="1000" fill="#ffffff"></rect><g transform="matrix(9,0,0,9,50,50)"><svg xmlns="http://www.w3.org/2000/svg" version="1.2" viewBox="0 0 1000 1000" width="100" height="100"><style>
		.s0 { fill: #ffffff } 
		.s1 { fill: #022e85 } 
		.s2 { fill: #15b515 } 
	</style><path id="Shape 1" fill-rule="evenodd" class="s0" d="m495.35 983.16c-273.26 0-494.15-208.98-494.15-467.51 0-258.54 220.89-467.52 494.15-467.52 273.26 0 494.14 208.98 494.14 467.52 0 258.53-220.88 467.51-494.14 467.51z"></path><g id="Layer 1">
		<g id="&lt;Group&gt;">
			<g id="&lt;Group&gt;">
				<path id="&lt;Path&gt;" class="s1" d="m480.95 200.73c46.3-47 126.39-54.15 180.35-16.25 30.73 20.01 52.5 53.03 59.49 88.95 9 37.76 0.02 78.32-20.43 110.86-67.22 117.8-134.7 235.44-201.37 353.55-20 35.99-55.73 62.22-95.59 71.93-33.91 6.87-70.64 2.54-100.82-14.83-13.73-7.09-24.98-17.78-36.47-27.86 34.37-4.11 67.75-20.82 89.5-48.1 16.08-19 25.63-43.02 28.59-67.62 1.63-19.96 0.43-40.01 0.94-59.99 29.81-1.15 60.83 3.83 89.52-6.65 39.22-12.73 70.99-45.37 82.91-84.85 9.26-32.62 6.7-68.99-9.24-99.17-14.76-29.09-41.18-51.97-72.07-62.45-24.12-9.07-50.4-5.86-75.59-6.84 12.3-23.38 26.06-45.97 39.03-69.02 12.58-21.22 23.04-44.41 41.25-61.66z"></path>
			</g>
			<path id="&lt;Path&gt;" class="s2" d="m211.7 230.66c22.85-18.68 57.57-20.22 82.12-3.92 18.14 11.34 29.7 31.66 31.69 52.79 1.55 36.7-0.77 73.51 0.95 110.21 34.22 0.34 68.44 0.05 102.66-0.02 23.78-0.84 48.74 9.55 62.45 29.51 16.61 22.56 17.69 54.7 3.55 78.72-6.61 12.01-17.21 21.04-29.39 27.02-10.58 5.19-22.31 7.69-34.1 7.89-35.32 0.59-70.66-0.68-105.98 0.46 0.45 24.33-0.31 48.67 0.81 72.98 0.19 19.6 1.56 39.96-6.1 58.51-10.58 27.02-39.86 44.96-68.6 43.38-35.35-2.08-66.53-33.14-67.32-68.77-0.47-35.44 0.17-70.88-0.23-106.32-35.64-0.33-71.27-0.26-106.87-0.33-22.38 0-44.53-11.13-57.58-29.36-17.25-23.33-18.09-57.5-2.15-81.7 12.73-20.02 36.42-31.97 59.92-31.99 35.53-0.17 71.09 0.43 106.63-0.02-0.15-33.96 0.07-67.89 0.26-101.82-0.38-21.94 9.79-43.86 27.28-57.22z"></path>
			<path id="&lt;Path&gt;" class="s2" d="m781 353.73l141.1 241.4c32.47 55.54 22.97 126.04-23.03 171.01-61.86 60.48-163.19 51.05-212.83-19.8l-69.09-98.59z"></path>
		</g>
	</g></svg></g></g><defs><clipPath id="SvgjsClipPath1040"><rect width="1000" height="1000" x="0" y="0" rx="350" ry="350"></rect></clipPath></defs></svg>