<svg version="1.2" xmlns="http://www.w3.org/2000/svg" viewBox="0 0 2262 632" width="510" height="142">
	<style>
		.s0 { fill: #15b515 } 
		.s1 { fill: #022e85 } 
	</style>
	<g>
		<g>
			<g>
				<path class="s0" d="m888.1 435.26c0-21.82 17.77-39.63 39.49-39.63 21.72 0 39.54 17.81 39.54 39.63 0 21.82-17.81 39.35-39.58 39.35-21.77 0-39.44-17.72-39.45-39.35zm63.56-0.09c0-13.29-10.84-24.13-24.13-24.13-13.29 0-24.03 10.84-24.03 24.13 0 13.29 10.79 23.98 24.03 23.98 13.24 0 24.13-10.79 24.13-23.98z"/>
				<path class="s0" d="m983.39 435.21c0-21.44 18.05-39.58 39.44-39.58 9.9 0.14 18.66 4.05 26.62 11.73l-8.81 12.02c-5.18-5.09-11.4-8.2-17.95-8.2-12.2 0-23.84 10.84-23.84 24.13 0 13.29 12.06 23.98 23.8 23.98 6.97 0 13-3.72 18.05-8.67l8.76 12.35c-6.69 6.64-14.84 11.64-26.34 11.64-21.91 0-39.72-18.05-39.72-39.39z"/>
				<path class="s0" d="m1061.15 435.21c0-21.44 18.05-39.58 39.44-39.58 9.9 0.14 18.66 4.05 26.62 11.73l-8.81 12.02c-5.18-5.09-11.4-8.2-17.95-8.2-12.2 0-23.84 10.84-23.84 24.13 0 13.29 12.06 23.98 23.8 23.98 6.97 0 13-3.72 18.05-8.67l8.76 12.35c-6.69 6.64-14.84 11.64-26.34 11.64-21.91 0-39.72-18.05-39.72-39.39z"/>
				<path class="s0" d="m1144.8 445.06v-47.88h15.36v47.83c0 8.29 6.55 14.33 13.9 14.33 7.35 0 14-6.08 14-14.33v-47.83h15.36v47.88c0 17.2-13.15 29.73-29.31 29.73-16.16 0-29.31-12.53-29.31-29.73z"/>
				<path class="s0" d="m1225.62 397.19h26.67c14.7 0 26.72 11.54 26.72 25.68 0 14.14-12.02 25.59-26.72 25.59h-11.4v24.69h-15.27zm38.12 25.54c0-5.75-5.14-10.41-11.45-10.41h-11.4v21.02l11.4 0.05c6.31 0.05 11.45-4.76 11.45-10.66z"/>
				<path class="s0" d="m1329.25 462.54h-30.39l-4.85 10.6h-16.49l36.28-77.84h0.47l36.33 77.84h-16.54zm-5.94-13l-9.24-20.31-9.28 20.31z"/>
				<path class="s0" d="m1406.49 412.31h-18.66v60.83h-15.31v-60.83h-18.71v-15.13h52.68z"/>
				<path class="s0" d="m1424.73 397.19h15.27v75.96h-15.27z"/>
				<path class="s0" d="m1459.55 435.26c0-21.82 17.76-39.63 39.49-39.63 21.73 0 39.54 17.81 39.54 39.63 0 21.82-17.81 39.35-39.58 39.35-21.77 0-39.44-17.72-39.45-39.35zm63.57-0.09c0-13.29-10.84-24.13-24.13-24.13-13.29 0-24.03 10.84-24.03 24.13 0 13.29 10.79 23.98 24.03 23.98 13.24 0 24.13-10.79 24.13-23.98z"/>
				<path class="s0" d="m1619.21 397v77.56h-0.71l-45.09-43.87v42.55h-15.27v-77.47h0.75l45 43.78v-42.55c0 0 15.31 0 15.32 0z"/>
				<path class="s0" d="m1688.21 462.54h-30.39l-4.85 10.6h-16.49l36.28-77.84h0.47l36.33 77.84h-16.54zm-5.94-13l-9.24-20.31-9.28 20.31z"/>
				<path class="s0" d="m1772.62 457.97v15.17h-45.8v-75.96h15.27v60.79z"/>
				<path class="s0" d="m1886.52 397.19v75.96h-15.22v-30.44h-27.28v30.44h-15.22v-75.96h15.22v30.39h27.28v-30.39z"/>
				<path class="s0" d="m1924.65 412.22v14.84h26.2v15.22h-26.2v15.69h30.53v15.17h-45.8v-75.96h45.8v15.03c0 0-30.53 0-30.53 0.01z"/>
				<path class="s0" d="m2022.19 462.54h-30.39l-4.85 10.6h-16.49l36.28-77.84h0.47l36.33 77.84h-16.54zm-5.93-13l-9.24-20.31-9.28 20.31z"/>
				<path class="s0" d="m2106.6 457.97v15.17h-45.8v-75.96h15.27v60.79z"/>
				<path class="s0" d="m2158.76 412.31h-18.66v60.83h-15.31v-60.83h-18.71v-15.13h52.68z"/>
				<path class="s0" d="m2234.73 397.19v75.96h-15.22v-30.44h-27.28v30.44h-15.22v-75.96h15.22v30.39h27.28v-30.39z"/>
			</g>
			<g>
				<path class="s0" d="m1027.35 582.89h-30.39l-4.85 10.6h-16.49l36.28-77.84h0.47l36.33 77.84h-16.54zm-5.93-13l-9.24-20.31-9.28 20.31z"/>
				<path class="s0" d="m1127.02 517.35v77.56h-0.71l-45.09-43.87v42.55h-15.27v-77.47h0.75l45 43.78v-42.55c0 0 15.31 0 15.32 0z"/>
				<path class="s0" d="m1211.53 555.61c0 23.56-14.99 37.89-39.54 37.89h-22.1v-75.91l22.1-0.05c24.55-0.05 39.54 14.37 39.54 38.07zm-15.41-0.05c0-14.23-9.14-22.9-24.17-22.9h-6.83v45.61h6.97c14.94 0 24.03-8.58 24.03-22.71z"/>
				<path class="s0" d="m1265.07 580.39l12.2-8.58c3.35 5.37 8.2 7.82 14.75 7.82 7.16 0 11.97-2.92 11.97-6.97 0-5.56-9.09-9.94-17.06-13.9-8.53-4.24-17.91-8.91-17.91-21.02 0-13.15 11.12-21.82 25.07-21.82 10.37 0 18.94 4.29 22.38 13.48l-11.26 7.87c-2.26-4.52-6.64-6.36-10.88-6.36-5.7 0-9.94 3.3-9.94 7.21 0 4.52 5.75 6.08 14.47 10.18 12.58 5.94 20.5 12.35 20.5 24.03 0 13.85-11.31 22.66-27.57 22.66-12.44 0-21.63-5.18-26.72-14.6z"/>
				<path class="s0" d="m1380.61 582.89h-30.39l-4.85 10.6h-16.49l36.28-77.84h0.47l36.33 77.84h-16.54zm-5.93-13l-9.24-20.31-9.28 20.31z"/>
				<path class="s0" d="m1434.48 532.57v15.31h26.2v15.22h-26.2v30.49h-15.27v-76.24h45.8v15.22z"/>
				<path class="s0" d="m1498.53 532.57v14.84h26.2v15.22h-26.2v15.69h30.53v15.17h-45.8v-75.96h45.8v15.03c0 0-30.53 0-30.53 0.01z"/>
				<path class="s0" d="m1598.01 532.66h-18.66v60.83h-15.31v-60.83h-18.71v-15.13h52.68z"/>
				<path class="s0" d="m1634.16 560.88l-23.51-43.35h17.25l13.85 26.39 13.85-26.39h17.29l-23.56 43.35v32.61h-15.17z"/>
				<path class="s0" d="m1724.78 555.56c0-21.44 18.05-39.58 39.44-39.58 9.9 0.14 18.66 4.05 26.62 11.73l-8.81 12.02c-5.18-5.09-11.4-8.2-17.95-8.2-12.2 0-23.84 10.84-23.84 24.13 0 13.29 12.06 23.98 23.8 23.98 6.97 0 13-3.72 18.05-8.67l8.76 12.35c-6.69 6.64-14.84 11.64-26.34 11.64-21.91 0-39.72-18.05-39.72-39.39z"/>
				<path class="s0" d="m1824.36 532.57v14.84h26.2v15.22h-26.2v15.69h30.53v15.17h-45.8v-75.96h45.8v15.03c0 0-30.53 0-30.53 0.01z"/>
				<path class="s0" d="m1936.84 517.35v77.56h-0.71l-45.09-43.87v42.55h-15.27v-77.47h0.75l45 43.78v-42.55h15.31z"/>
				<path class="s0" d="m2007.77 532.66h-18.66v60.83h-15.31v-60.83h-18.71v-15.13h52.68z"/>
				<path class="s0" d="m2041.28 532.57v14.84h26.2v15.22h-26.2v15.69h30.53v15.17h-45.8v-75.96h45.8v15.03c0 0-30.53 0-30.53 0.01z"/>
				<path class="s0" d="m2132.19 593.49l-24.17-35.91v35.91h-15.27l-0.05-75.96h24.79c14.18 0 25.82 10.93 25.82 24.6 0 9.75-5.89 18.28-14.04 21.16l21.58 30.2zm-24.23-41.75l9.8 0.05c5.18 0.05 9.8-4.15 9.8-9.57 0-5.42-4.67-9.57-9.8-9.57h-9.8c0 0 0 19.08 0 19.09z"/>
			</g>
		</g>
		<g>
			<path class="s1" d="m1400.53 5.01c13.66-0.28 27.42 4.14 37.92 12.97 11.91 10.28 18.83 26.01 18.59 41.72 0.3 50.35 0.02 100.72 0.24 151.09 0.58 36.11-14.2 72.78-41.5 96.82-38.44 34.1-99.11 40.05-143.21 13.58-30.21-17.58-51.62-49-57.41-83.42-5.91-26.43-2.33-54.47 7.87-79.38 12.73-31.9 40.21-57.51 72.9-68.03 19.29-5.31 40.31-9.07 59.71-2.17 17.94 5.63 30.19 22.89 33.25 40.92 1.47 12.15 1.03 24.96-4.08 36.27-12.77-13.74-30.74-23.38-49.81-23.09-17.46-0.87-34.72 6.92-46.45 19.71-6.6 6.89-11.19 15.3-14.23 24.29-4.76 14.05-5.59 29.27-1.95 43.65 3.03 11.99 8.85 23.25 17.61 32.02 23.7 23.88 66.79 23.8 90.54 0.04 13.6-13.22 20.18-32.53 19.81-51.28 0.06-68.58-0.24-137.15 0.2-205.71z"/>
			<path class="s1" d="m1039.43 38.56c5.19-10.34 19.43-15.45 29.55-9.17 7.89 4.32 11.02 13.3 15.15 20.74 51.72 95.11 104.22 189.82 156.08 284.83-13.23-0.25-26.47 0.58-39.68-0.1-4.46-0.23-8.92-0.88-13.14-2.35-13.5-4.72-24.4-15.71-31.51-27.97-32.83-60.69-64.9-121.8-97.56-182.58-13.28 27.72-28.57 54.49-42.36 81.99 17.6 0.78 36.75-2.96 52.62 6.76 19.19 10.66 27.46 33.57 27.56 54.52-37.9 0.56-75.8 0.1-113.7 0.24-7.91 14.14-14.7 28.87-22.83 42.87-6.85 11.83-18.25 21.21-31.4 24.96-3.46 0.99-7.06 1.46-10.65 1.58-13.09 0.42-26.18-0.21-39.27-0.19 53.47-98.85 107.98-197.12 161.14-296.13z"/>
			<path class="s1" d="m403.67 78.81c38.48-39.05 105.03-45 149.87-13.5 25.53 16.62 43.63 44.07 49.43 73.91 7.48 31.38 0.02 65.08-16.98 92.13-55.86 97.89-111.93 195.65-167.33 293.8-16.62 29.91-46.31 51.7-79.44 59.77-28.18 5.71-58.7 2.11-83.78-12.33-11.41-5.89-20.76-14.77-30.3-23.15 28.55-3.42 56.29-17.3 74.37-39.97 13.36-15.79 21.3-35.75 23.76-56.2 1.35-16.58 0.36-33.25 0.78-49.85 24.78-0.95 50.55 3.18 74.39-5.53 32.59-10.58 59-37.7 68.9-70.51 7.7-27.1 5.57-57.33-7.68-82.4-12.27-24.18-34.22-43.19-59.89-51.9-20.04-7.54-41.88-4.87-62.82-5.69 10.22-19.43 21.65-38.2 32.43-57.35 10.46-17.64 19.15-36.91 34.28-51.24z"/>
			<path class="s1" d="m1729.29 82.33c20.04-0.72 39.11 10.66 48.94 27.96 42.97-36.15 113.25-32.25 151.98 8.41 23.29 22.87 34.54 55.96 34.36 88.19-0.08 46.21 0.18 92.43-0.08 138.64-18.02-0.28-36.51-8.45-46.81-23.6-7.78-10.86-10.34-24.52-10.38-37.62 0-25.83 0.26-51.66 0-77.49 0.26-20.42-8.97-41.26-25.61-53.47-14.24-10.06-33.05-13.06-49.77-8.33-19.83 4.41-34.92 21.3-41.58 39.87-4.18 10.78-4.91 22.37-4.59 33.8-0.38 42.34 0.26 84.67-0.26 126.99-19.77-0.52-40.53-10.56-49.65-28.73-5.47-10.64-7.24-22.77-6.74-34.6 0.32-66.67-0.06-133.33 0.2-200z"/>
			<path class="s1" d="m2179.3 82.23c24.22-0.5 48.57 16.33 54.13 40.16 0.61 2.62 0.9 5.32 1.03 8.01 0.81 16.79 0.05 33.63 0.15 50.44-0.52 55.06 0.22 110.14-0.22 165.21-15.93-1.41-32.25-7.16-43.05-19.43-10.06-11.51-13.44-27.32-13.62-42.26-0.28-26.57 0.26-53.11-0.08-79.68-0.64-22.51-14.4-44.11-34.42-54.39-25.91-13.96-61.52-8.27-80.04 15.17-23.31 27.1-21.52 71.75 3.82 96.92 16.17 16.29 41.74 21.97 63.57 15.41 12.47-2.74 22.73-10.94 31.48-19.87 8.01 17.78 6.5 39.67-4.32 55.96-8.11 13.08-22.65 21.02-37.66 22.95-44.88 6.12-91.83-18.17-113.62-57.69-28.2-48.34-21.6-114.78 16.72-155.88 17.44-18.21 40.53-31.4 65.52-35.55 30.96-6.18 64.29 0.48 90.66 17.8-0.28-7.76-0.32-15.53-0.04-23.29z"/>
			<path class="s1" d="m1529.32 108.83c22.77-17.06 51.82-24.54 80.02-23.33 33.49 1.91 68.05 18.37 84.93 48.36 8.59 14.77 10.04 32.35 8.73 49.1-0.93 16.94-8.27 33.53-20.4 45.42-16.48 16.41-40.23 25-63.35 23.74-16.64 0.46-32.95-7.18-44.24-19.19-10.44-10.74-16.94-24.78-20.46-39.21 16.25 1.83 32.57 3.6 48.96 3.54 11.91-0.44 24.5-2.55 34.2-9.94 9.05-6.72 9.6-21.04 2.88-29.55-5.91-8.19-15.73-12.19-25.27-14.28-19.21-3.7-40.47 0.82-55.18 14.06-29.15 24.78-31.46 74.17-5.53 102.05 22.97 26.39 69.18 27.32 92.96 1.57 16.52 10.96 32.19 23.15 48.66 34.22-19.21 22.77-47.33 37.94-76.98 41.06-28.44 3.42-58.56-1.29-82.98-16.84-29.31-17.8-50.01-48.92-55.06-82.84-8.69-46.93 8.47-99.76 48.11-127.94z"/>
		</g>
		<path class="s0" d="m179.92 103.68c18.99-15.53 47.84-16.8 68.25-3.26 15.07 9.43 24.68 26.31 26.33 43.87 1.29 30.5-0.64 61.09 0.8 91.59 28.44 0.28 56.87 0.04 85.31-0.02 19.77-0.7 40.51 7.93 51.9 24.52 13.8 18.75 14.7 45.46 2.94 65.42-5.49 9.98-14.3 17.48-24.42 22.45-8.8 4.32-18.54 6.39-28.34 6.56-29.35 0.49-58.72-0.57-88.07 0.38 0.38 20.22-0.26 40.45 0.68 60.65 0.16 16.29 1.29 33.21-5.07 48.62-8.79 22.45-33.13 37.36-57.01 36.05-29.37-1.73-55.28-27.54-55.94-57.15-0.4-29.45 0.14-58.9-0.2-88.35-29.61-0.28-59.22-0.22-88.81-0.28-18.59 0-37.01-9.25-47.84-24.4-14.34-19.39-15.03-47.78-1.79-67.89 10.58-16.64 30.27-26.57 49.79-26.59 29.53-0.14 59.08 0.36 88.61-0.02-0.12-28.22 0.06-56.41 0.22-84.61-0.32-18.23 8.13-36.45 22.67-47.55z"/>
		<path class="s0" d="m653.01 205.95l117.26 200.61c26.98 46.15 19.09 104.74-19.14 142.11-51.41 50.26-135.61 42.42-176.87-16.45l-57.41-81.93 136.15-244.33z"/>
	</g>
</svg>